<?xml version="1.0" encoding="UTF-8"?>
<svg version="1.1" viewBox="0 0 2000 1500" width="1280" height="1280" xmlns="http://www.w3.org/2000/svg">
<path transform="translate(0)" d="m0 0h2e3v1500h-2e3z" fill="#FEFEFE"/>
<path transform="translate(335,730)" d="m0 0h59l8 3 8 7 13 19 10 13 12 17 7 10 2 4v10l-4 6-5 4-2 1h-27v6l-2 2h-99l-2-2v-6h-27l-7-4-4-6v-12l6-9 39-54 8-7z" fill="#2ECC40"/>
<path transform="translate(622,667)" d="m0 0h9l6 4 5 12 23 73 5 15 10-33 14-51 5-14 7-6h10l5 4 10 27 18 55 18 57 2 6v9l-4 6-2 1h-9l-5-3-4-5-15-52-13-43-6-18-2 2-10 34-11 37-5 15-2 11-4 4-10 2-7-3-3-4-7-27-13-43-9-27v-3h-2l-2 9-10 36-15 57-4 13-6 7-2 1h-8l-6-4-2-3v-8l13-42 19-64 10-34 5-8z" fill="#0074D9"/>
<path transform="translate(1569,667)" d="m0 0h11l5 5 2 10v144l-4 5-2 1h-10l-6-4-16-22-13-17-14-18-11-14-14-18-15-20-7-10 1 115-3 5-4 3h-10l-6-3-2-4 1-21v-84l-1-27v-15l2-4 12-6h7l7 6 6 11 16 21 10 13 11 14 13 16 12 16 13 17 3 4v-74l-1-36 3-7z" fill="#0074D9"/>
<path transform="translate(865,669)" d="m0 0h11l5 3 2 9-2 7-5 4h-57v33l53-1h17l6 5 2 7-3 7-7 3h-68v62l50-1 7-1h9l7 3 3 3v10l-4 5-5 2h-84l-5-3-2-4v-9l1-4v-38l-1-52v-42l4-6 2-1z" fill="#0074D9"/>
<path transform="translate(1e3 669)" d="m0 0h11l5 3 2 4v8l-3 6-4 2h-57v33l53-1h18l5 5 2 4-1 7-5 5-4 1h-68v62l50-1 7-1h9l8 3 2 3v10l-5 6-4 1h-84l-6-5-1-3v-7l1-4v-50l-1-52v-30l3-6 3-2z" fill="#0074D9"/>
<path transform="translate(1226,667)" d="m0 0h22l13 3 11 6 7 9 2 6v9l-4 5-5 2-8-1-5-4-3-9-5-2-6-2h-19l-10 5-3 4-1 3v8l4 8 9 8 23 12 18 11 13 12 6 10 3 8 1 6v9l-2 10-5 10-9 9-14 7-14 3h-21l-16-4-14-7-8-8-5-10-1-4v-11l3-9 6-4h9l6 4 1 2v16l4 6 8 5 14 3 15-1 10-4 5-5 3-6v-13l-6-10-12-9-16-8-19-10-12-9-6-8-4-9-1-4v-19l4-10 7-8 10-6 8-3z" fill="#0074D9"/>
<path transform="translate(1688,667)" d="m0 0h22l15 3 15 5 6 5 1 9-3 6-5 3h-9l-13-6-10-2h-17l-13 3-13 7-7 6-7 10-5 13-2 13v13l2 14 5 13 6 9 5 5 8 6 12 5 11 2h12l16-3 8-4 7-4 9 1 4 4 1 2v8l-4 6-10 6-16 5-11 2h-21l-17-4-16-8-9-7-9-9-8-13-5-12-3-12-1-7v-19l3-17 5-14 7-12 9-10 9-8 16-8 13-4z" fill="#0074D9"/>
<path transform="translate(317,757)" d="m0 0h95l3 2v65h-102v-63z" fill="#FEFEFE"/>
<path transform="translate(1314,667)" d="m0 0h8l7 8 10 19 25 38 3 5 7-10 12-19 15-25 6-12 5-4h8l5 3 3 4v9l-7 11-15 23-12 19-14 23-1 4v26l1 22v13l-3 6-4 2h-10l-6-4-2-4v-64l-15-25-14-22-10-15-9-14-1-2v-8l5-6z" fill="#0074D9"/>
<path transform="translate(1058,670)" d="m0 0h95l6 5 1 2v9l-3 5-6 3-34-1v132l-3 5-4 2h-11l-5-4-1-2-1-9 1-124h-36l-5-5-1-3v-9l4-5z" fill="#0074D9"/>
<path transform="translate(357,667)" d="m0 0h14l9 4 7 6 5 10 1 11-3 10-4 6-7 6-6 3-5 1h-8l-9-3-10-9-4-8-1-4v-9l3-9 4-6 7-6z" fill="#2ECC40"/>
<path transform="translate(523,666)" d="m0 0 5 2 3 5 1 4v145l-3 8-4 3-4-2-3-4-1-3v-149l3-6z" fill="#0074D9"/>
<path transform="translate(289,740)" d="m0 0h22l-1 4-9 13-26 1v35l-4 6h-12l-6-3-2-4v-7l6-9 13-18 11-15z" fill="#2ECC40"/>
<path transform="translate(417,740)" d="m0 0h23l7 3 7 8 10 14 13 18 1 2v7l-5 6-3 1h-12l-4-6-1-34-1-1-24-1-10-14z" fill="#2ECC40"/>
<path transform="translate(302,701)" d="m0 0h9l6 3 6 7 1 3v9l-4 8-5 4-3 1h-11l-7-4-4-6-1-3v-9l3-6 7-6z" fill="#2ECC40"/>
<path transform="translate(418,701)" d="m0 0h9l8 5 4 6 1 3v7l-4 8-6 5-2 1h-12l-8-6-3-6v-11l5-8z" fill="#2ECC40"/>
<path transform="translate(363,780)" d="m0 0 6 1 5 4 1 2v9l-4 5-7 2-7-3-3-4-1-6 3-6 4-3z" fill="#2ECC40"/>
</svg>
